<?xml version="1.0" encoding="UTF-8" standalone="no"?>
<!-- Created with Inkscape (http://www.inkscape.org/) -->

<svg
   xmlns:dc="http://purl.org/dc/elements/1.1/"
   xmlns:cc="http://creativecommons.org/ns#"
   xmlns:rdf="http://www.w3.org/1999/02/22-rdf-syntax-ns#"
   xmlns:svg="http://www.w3.org/2000/svg"
   xmlns="http://www.w3.org/2000/svg"
   xmlns:sodipodi="http://sodipodi.sourceforge.net/DTD/sodipodi-0.dtd"
   xmlns:inkscape="http://www.inkscape.org/namespaces/inkscape"
   width="210mm"
   height="297mm"
   viewBox="0 0 744.09448819 1052.3622047"
   id="svg2"
   version="1.1"
   inkscape:version="0.91 r13725"
   sodipodi:docname="beard.svg">
  <defs
     id="defs4" />
  <sodipodi:namedview
     id="base"
     pagecolor="#ffffff"
     bordercolor="#666666"
     borderopacity="1.0"
     inkscape:pageopacity="0.0"
     inkscape:pageshadow="2"
     inkscape:zoom="0.98994949"
     inkscape:cx="303.08911"
     inkscape:cy="782.75464"
     inkscape:document-units="px"
     inkscape:current-layer="text3336"
     showgrid="false"
     showguides="true"
     inkscape:guide-bbox="true"
     inkscape:snap-bbox="true"
     inkscape:bbox-paths="true"
     inkscape:bbox-nodes="true"
     inkscape:snap-bbox-edge-midpoints="true"
     inkscape:snap-bbox-midpoints="true"
     inkscape:snap-page="true"
     inkscape:window-width="1360"
     inkscape:window-height="768"
     inkscape:window-x="0"
     inkscape:window-y="0"
     inkscape:window-maximized="0">
    <sodipodi:guide
       position="343.50665,673.45981"
       orientation="0,1"
       id="guide3370" />
    <sodipodi:guide
       position="272.70439,931.33983"
       orientation="1,0"
       id="guide3372" />
    <sodipodi:guide
       position="471.39011,911.15762"
       orientation="1,0"
       id="guide3374" />
    <sodipodi:guide
       position="254.55844,806.3943"
       orientation="0,1"
       id="guide3395" />
    <sodipodi:guide
       position="183.84776,888.65982"
       orientation="0,1"
       id="guide3414" />
    <sodipodi:guide
       position="343.50666,974.01983"
       orientation="0,1"
       id="guide3416" />
    <sodipodi:guide
       position="343.50665,847.52705"
       orientation="0,1"
       id="guide3420" />
    <sodipodi:guide
       position="371.73613,805.09159"
       orientation="1,0"
       id="guide3424" />
  </sodipodi:namedview>
  <metadata
     id="metadata7">
    <rdf:RDF>
      <cc:Work
         rdf:about="">
        <dc:format>image/svg+xml</dc:format>
        <dc:type
           rdf:resource="http://purl.org/dc/dcmitype/StillImage" />
        <dc:title></dc:title>
      </cc:Work>
    </rdf:RDF>
  </metadata>
  <g
     inkscape:label="Layer 1"
     inkscape:groupmode="layer"
     id="layer1">
    <g
       style="font-style:normal;font-weight:normal;font-size:40px;line-height:125%;font-family:sans-serif;letter-spacing:0px;word-spacing:0px;fill:#000000;fill-opacity:1;stroke:none;stroke-width:1px;stroke-linecap:butt;stroke-linejoin:miter;stroke-opacity:1"
       id="text3336">
      <rect
         style="fill:#4a4a4a;fill-opacity:1"
         id="rect3433"
         width="745.49255"
         height="496.99506"
         x="-1.0101526"
         y="-1.2269001"
         inkscape:export-xdpi="90"
         inkscape:export-ydpi="90" />
      <g
         id="g3426"
         style="fill:#cc611d;fill-opacity:1"
         transform="translate(28.540589,-2.8367176e-6)"
         inkscape:export-xdpi="178.26208"
         inkscape:export-ydpi="178.26208">
        <path
           sodipodi:nodetypes="csccsssccsssccsssccscc"
           inkscape:connector-curvature="0"
           id="path3341"
           style="font-style:normal;font-variant:normal;font-weight:500;font-stretch:normal;font-family:'Source Code Pro for Powerline';-inkscape-font-specification:'Source Code Pro for Powerline Medium';fill:#cc611d;fill-opacity:1"
           d="m 411.42944,349.11533 c 24.25815,0 31.42007,-13.11521 31.42007,-41.12396 l 0,-62.44896 -12.93768,48 0,10.89229 c 0,21.56229 -5.08265,26.23042 -19.63754,26.23042 -13.63076,0 -25.41329,-1.33375 -40.66126,-1.33375 -15.479,0 -22.87196,5.335 -25.64432,20.89542 l -0.92412,0 c -2.77236,-15.56042 -10.16532,-20.89542 -25.64432,-20.89542 -14.09282,0 -27.72359,1.33375 -40.66126,1.33375 -14.55488,0 -19.63754,-4.66813 -19.63754,-26.23042 l 0,-10.89229 -12.93768,-48 0,62.44896 c 0,28.00875 7.16193,41.12396 31.42007,41.12396 15.94106,0 28.64772,-2.00063 43.20259,-2.00063 8.77914,0 17.55827,6.00188 17.78931,31.78771 l 13.8618,0 c 0.23102,-25.78583 9.01016,-31.78771 17.78931,-31.78771 15.47899,0 26.56844,2.00063 43.20259,2.00063 z" />
        <path
           inkscape:connector-curvature="0"
           id="path3341-6"
           style="font-style:normal;font-variant:normal;font-weight:500;font-stretch:normal;font-size:40px;line-height:125%;font-family:'Source Code Pro for Powerline';-inkscape-font-specification:'Source Code Pro for Powerline Medium';letter-spacing:0px;word-spacing:0px;fill:#cc611d;fill-opacity:1;stroke:none;stroke-width:1px;stroke-linecap:butt;stroke-linejoin:miter;stroke-opacity:1"
           d="m 411.42944,301.54084 c 24.25815,0 31.42007,-13.11521 31.42007,-41.12396 l 0,-14.44896 -12.93768,0 0,10.89229 c 0,21.56229 -5.08265,26.23042 -19.63754,26.23042 -13.63076,0 -25.41329,-1.33375 -40.66125,-1.33375 -15.479,0 -22.87196,5.335 -25.64432,20.89542 l -0.92412,0 c -2.77236,-15.56042 -10.16533,-20.89542 -25.64432,-20.89542 -14.09283,0 -27.72359,1.33375 -40.66126,1.33375 -14.55488,0 -19.63754,-4.66813 -19.63754,-26.23042 l 0,-10.89229 -12.93768,0 0,14.44896 c 0,28.00875 7.16193,41.12396 31.42007,41.12396 15.94106,0 28.64771,-2.00063 43.20259,-2.00063 8.77914,0 17.55827,6.00188 17.7893,31.78771 l 13.8618,0 c 0.23103,-25.78583 9.01016,-31.78771 17.78931,-31.78771 15.47899,0 26.56844,2.00063 43.20259,2.00063 z" />
        <path
           inkscape:connector-curvature="0"
           id="path3341-8"
           style="font-style:normal;font-variant:normal;font-weight:500;font-stretch:normal;font-size:40px;line-height:125%;font-family:'Source Code Pro for Powerline';-inkscape-font-specification:'Source Code Pro for Powerline Medium';letter-spacing:0px;word-spacing:0px;fill:#cc611d;fill-opacity:1;stroke:none;stroke-width:1px;stroke-linecap:butt;stroke-linejoin:miter;stroke-opacity:1"
           d="m 275.58387,108.12948 c -24.25814,0 -31.42007,13.11521 -31.42007,41.12396 l 0,14.44896 12.93768,0 0,-10.89229 c 0,-21.56229 5.08266,-26.23042 19.63754,-26.23042 13.63076,0 25.41329,1.33375 40.66126,1.33375 15.479,0 22.87196,-5.335 25.64432,-20.89542 l 0.92412,0 c 2.77236,15.56042 10.16532,20.89542 25.64432,20.89542 14.09282,0 27.72359,-1.33375 40.66126,-1.33375 14.55488,0 19.63754,4.66813 19.63754,26.23042 l 0,10.89229 12.93768,0 0,-14.44896 c 0,-28.00875 -7.16193,-41.12396 -31.42007,-41.12396 -15.94106,0 -28.64771,2.00063 -43.20259,2.00063 -8.77914,0 -17.55827,-6.00188 -17.7893,-31.787712 l -13.8618,0 c -0.23103,25.785832 -9.01016,31.787712 -17.7893,31.787712 -15.479,0 -26.56844,-2.00063 -43.20259,-2.00063 z" />
        <text
           transform="scale(0.99086748,1.0092167)"
           sodipodi:linespacing="125%"
           id="text3364"
           y="222.61452"
           x="255.24953"
           style="font-style:normal;font-weight:normal;font-size:35.31248474px;line-height:125%;font-family:sans-serif;letter-spacing:0px;word-spacing:0px;fill:#cc611d;fill-opacity:1;stroke:none;stroke-width:1px;stroke-linecap:butt;stroke-linejoin:miter;stroke-opacity:1"
           xml:space="preserve"><tspan
             style="font-style:normal;font-variant:normal;font-weight:500;font-stretch:normal;font-size:60px;font-family:'Source Code Pro for Powerline';-inkscape-font-specification:'Source Code Pro for Powerline Medium';fill:#cc611d;fill-opacity:1"
             y="222.61452"
             x="255.24953"
             id="tspan3366"
             sodipodi:role="line">BEARD</tspan></text>
      </g>
      <text
         xml:space="preserve"
         style="font-style:normal;font-weight:normal;font-size:40px;line-height:125%;font-family:sans-serif;letter-spacing:0px;word-spacing:0px;fill:#cc611d;fill-opacity:1;stroke:none;stroke-width:1px;stroke-linecap:butt;stroke-linejoin:miter;stroke-opacity:1;"
         x="46.472321"
         y="442.23007"
         id="text4235"
         sodipodi:linespacing="125%"
         inkscape:export-xdpi="178.26208"
         inkscape:export-ydpi="178.26208"><tspan
           sodipodi:role="line"
           id="tspan4237"
           x="46.472321"
           y="442.23007"
           style="font-style:normal;font-variant:normal;font-weight:500;font-stretch:normal;font-size:35px;font-family:'Source Code Pro for Powerline';-inkscape-font-specification:'Source Code Pro for Powerline Medium';fill:#cc611d;fill-opacity:1;">an unshaved templating language</tspan></text>
    </g>
  </g>
</svg>
